inDegrees=no
num_controls=7
num_derivatives=13
num_iterations=115
num_multipliers=7
num_parameters=0
num_slacks=7
num_states=26
objective=0.469975
objective_accelerations=0.062808
objective_balance=0.002013
objective_effort=0.020106
objective_height=0.375466
objective_ligament=0.009582
solver_duration=1636.976771
status=Solve_Succeeded
success=true
DataType=double
version=3
OpenSimVersion=4.5
endheader
time	/jointset/ground_pelvis/pelvis_tilt/value	/jointset/ground_pelvis/pelvis_tx/value	/jointset/ground_pelvis/pelvis_ty/value	/jointset/hip_l/hip_flexion_l/value	/jointset/hip_l/hip_adduction_l/value	/jointset/hip_l/hip_rotation_l/value	/jointset/back/lumbar_extension/value	/jointset/patellofemoral_l/patellar_flexion_l/value	/jointset/knee_l/knee_flexion_l/value	/jointset/knee_l/knee_adduction_l/value	/jointset/knee_l/knee_rotation_l/value	/jointset/ankle_l/ankle_angle_l/value	/jointset/subtalar_l/subtalar_angle_l/value	/jointset/ground_pelvis/pelvis_tilt/speed	/jointset/ground_pelvis/pelvis_tx/speed	/jointset/ground_pelvis/pelvis_ty/speed	/jointset/hip_l/hip_flexion_l/speed	/jointset/hip_l/hip_adduction_l/speed	/jointset/hip_l/hip_rotation_l/speed	/jointset/back/lumbar_extension/speed	/jointset/patellofemoral_l/patellar_flexion_l/speed	/jointset/knee_l/knee_flexion_l/speed	/jointset/knee_l/knee_adduction_l/speed	/jointset/knee_l/knee_rotation_l/speed	/jointset/ankle_l/ankle_angle_l/speed	/jointset/subtalar_l/subtalar_angle_l/speed	/forceset/tau_hip_flexion_l	/forceset/tau_hip_adduction_l	/forceset/tau_hip_rotation_l	/forceset/tau_knee_flexion_l	/forceset/tau_ankle_angle_l	/forceset/tau_subtalar_angle_l	/forceset/tau_lumbar_extension	lambda_cid13_p0	lambda_cid13_p1	lambda_cid13_p2	lambda_cid13_p3	lambda_cid13_p4	lambda_cid13_p5	lambda_cid14_p0	/jointset/ground_pelvis/pelvis_tilt/accel	/jointset/ground_pelvis/pelvis_tx/accel	/jointset/ground_pelvis/pelvis_ty/accel	/jointset/hip_l/hip_flexion_l/accel	/jointset/hip_l/hip_adduction_l/accel	/jointset/hip_l/hip_rotation_l/accel	/jointset/back/lumbar_extension/accel	/jointset/patellofemoral_l/patellar_flexion_l/accel	/jointset/knee_l/knee_flexion_l/accel	/jointset/knee_l/knee_adduction_l/accel	/jointset/knee_l/knee_rotation_l/accel	/jointset/ankle_l/ankle_angle_l/accel	/jointset/subtalar_l/subtalar_angle_l/accel	gamma_cid13_p0	gamma_cid13_p1	gamma_cid13_p2	gamma_cid13_p3	gamma_cid13_p4	gamma_cid13_p5	gamma_cid14_p0
1	-0.8375603140450825	-0.1591456882213907	0.615143368399413	2.020652479279585	-0.3363845819377078	0.04365141928291217	-0.4363027932068121	1.054917886879733	1.054917886879806	-0.005656269838388203	-0.1744698134157969	0.0009456395407147801	0.084328540779934	-0.1671789193940018	0.01276167540108767	0.0329778243942491	0.01193403285901471	-0.006742027238442495	-0.0555023968541325	-4.758478283518579e-05	-0.1663381432245148	-0.166338143224476	-0.01266870045789238	-0.0001148003899074797	-0.02320990214297791	-0.01308468356784188	-0.3813609258453802	-0.0002245482070790623	-0.005662236906233348	-0.1294663204441936	0.1152496415700654	0.01733445820916855	0.2816454500905788	6.769266995371275	-5.59842999004888	-2.94674621671158	-8.480617249375806	-545.4561085794292	-65.98831485277388	-2.232871392728752	3.20124238938953	0.7774464097308589	1.777829551712885	-7.64474019141541	-0.2267074525091487	-1.271070739538294	-0.02674721738881342	-3.851863115501773	-3.851863115501806	-0.408923025894028	-0.02307138657951944	0.3296314184899876	-0.1173386379612803	-1.13730857730882e-08	-5.208010284660508e-08	7.413015292220985e-09	1.707440710132765e-09	-9.809265408721211e-09	3.12181430552136e-08	-1.412458235570072e-08
1.01	-0.8390730095073075	-0.1589793170691963	0.615561769535601	2.020390968103234	-0.3364625524904882	0.04303347085288679	-0.4363033276731828	1.053061948943675	1.053061948943831	-0.005802760269389294	-0.1744709051927391	0.0007297596270975032	0.08419254341472616	-0.1353409983420458	0.02051356829325061	0.05068733049150306	-0.06422181759083001	-0.00884418640587745	-0.06808016987141463	-6.155289712520093e-05	-0.2048399562325964	-0.2048399562325978	-0.01662923765152808	-0.000101291343567017	-0.01999004273271776	-0.01411395932567495	-0.381676240016658	5.853875064822164e-05	-0.005667364648324963	-0.128450657803595	0.114394434987155	0.01746959026620513	0.2817687488385979	6.523015797297486	-5.65051665178634	-2.896732705813096	-8.44771139812522	-545.1983829015619	-65.91511983984006	-2.273111451838132	3.177941092692425	0.774211767680805	1.765247687670479	-7.598842242084892	-0.2007782879054713	-1.250077393002823	0.01094173057844167	-3.847913809188532	-3.847913809194536	-0.3896111602793983	0.01390668245023804	0.3145650919114482	-0.09558844739528378	-1.075769527751985e-08	-6.101639155656291e-08	6.666150960927503e-09	-4.683461613104732e-09	-1.295959321712043e-08	4.223351657151714e-08	-1.707550542935279e-08
1.02	-0.8402667509330942	-0.1587353967803359	0.6161568130425494	2.019368331468321	-0.3365613062627513	0.0422899553306467	-0.4363040691528839	1.050821278194389	1.050821278194633	-0.005988854491154222	-0.1744717929527774	0.0005453586855104915	0.08404628001139977	-0.1033881121063357	0.02827150273428879	0.06830629854631963	-0.1402910588533093	-0.01089867113510315	-0.08061581529588424	-8.89874503110524e-05	-0.2432847058697649	-0.2432847058698062	-0.02058945861240863	-7.399700885088854e-05	-0.01691410773776071	-0.01513789119154753	-0.3819915541879426	0.0003416257083648068	-0.005672492390311474	-0.1274349951629919	0.1135392284042433	0.01760472232322923	0.2818920475866082	6.272944902082089	-5.703585277557373	-2.844676798419409	-8.43495341099193	-545.028432198353	-65.84078445402869	-2.322192292560984	3.224235426140331	0.7786547195059093	1.759721943225405	-7.627418353942314	-0.2171725648673035	-1.262645220975797	-0.029440505167979	-3.840450441319145	-3.8404504413191	-0.4088597793430027	-0.02031432890439871	0.3008465354293721	-0.1162698595691892	-1.005931422046157e-08	-6.963359824488629e-08	5.140520180125751e-09	-1.077133354738892e-08	-1.594058128137124e-08	5.180107435427658e-08	-1.971682068078318e-08
1.03	-0.841140395854057	-0.1584138515836637	0.6169275226753478	2.017585568805323	-0.3366803392038175	0.0414212603824423	-0.436305156057434	1.048196529895175	1.048196529895315	-0.006214485611361172	-0.1744723761398636	0.0003909642540358839	0.0838898218642863	-0.07132393631396335	0.03603991457644518	0.08581348208646582	-0.2162326355153087	-0.01289592624524745	-0.09311807464189618	-0.0001296215258339669	-0.2816474137101147	-0.2816474137101911	-0.02452960567110504	-4.150528565737514e-05	-0.01399189438735609	-0.01614966623562419	-0.381946737246399	0.0006720088991491279	-0.005669213832300672	-0.1263687205597657	0.1125844640356595	0.01780181908619519	0.2818113237361388	6.010871311663862	-5.783962614872788	-2.785412916562803	-8.40857794366981	-544.5591500647871	-65.79883595047812	-2.380391565894862	3.200045823287521	0.7762877049449657	1.742890868359781	-7.573205186813174	-0.1891925385320094	-1.243270416754509	0.008440931316983858	-3.831545428911481	-3.83154542891676	-0.3855373753688873	0.01520703827986846	0.2838371905528316	-0.09300837217300237	-9.360086320939105e-09	-7.824754899421339e-08	3.606942802900442e-09	-1.685611333484705e-08	-1.89198413890491e-08	6.135385850710189e-08	-2.235497666872151e-08
1.04	-0.8416928915835946	-0.158014551610895	0.6178726390053378	2.015044254802808	-0.3368189828068727	0.04042769201570502	-0.4363066861447166	1.045188681622852	1.045188681622894	-0.006479307243390663	-0.1744725991866482	0.0002649776472138456	0.08372337055766281	-0.03915827382151615	0.04382245795357973	0.1031876379846477	-0.2920013267566843	-0.01482080353315206	-0.105590499001534	-0.0001776239988967501	-0.3199047004912074	-0.319904700491318	-0.02842756097924078	-1.968948518628474e-06	-0.01123254280867796	-0.01713652309354546	-0.381901920304863	0.001002392089926472	-0.005665935274158329	-0.1253024459565329	0.1116296996670757	0.01799891584915187	0.2817305998856593	5.74485320848747	-5.865354797884121	-2.724038884787986	-8.401222317928593	-544.1787365486819	-65.75658009239886	-2.447991633152889	3.244532766155288	0.781481026501553	1.73311641483255	-7.592841269817558	-0.2026970004193788	-1.256678223700988	-0.03091418467590444	-3.819366229467744	-3.819366229467498	-0.4004214292308764	-0.0189054061153742	0.2682741810840928	-0.1112862223381182	-7.447521194461597e-09	-8.918839373474972e-08	-1.291962676053923e-08	-2.400801658427675e-08	-2.114912871978159e-08	6.343403764901152e-08	-2.311425973976602e-08
